<?xml version="1.0" encoding="utf-8" ?>
<svg baseProfile="tiny" height="65" version="1.2" width="61" xmlns="http://www.w3.org/2000/svg" xmlns:ev="http://www.w3.org/2001/xml-events" xmlns:xlink="http://www.w3.org/1999/xlink"><defs /><path d="M 36,10 L 30,11 L 27,13 L 24,13 L 18,16 L 16,18 L 16,19 L 13,22 L 12,24 L 10,31 L 10,40 L 11,42 L 12,44 L 19,51 L 21,52 L 23,53 L 27,54 L 31,54 L 34,53 L 36,52 L 38,51 L 42,48 L 45,45 L 48,39 L 49,36 L 50,27 L 50,22 L 49,19 L 48,17 L 46,15 L 43,14 L 40,11 L 38,10 Z M 25,17 L 30,20 L 34,19 L 37,17 L 39,17 L 42,18 L 46,22 L 46,29 L 45,35 L 44,38 L 43,41 L 42,43 L 38,47 L 32,50 L 27,50 L 24,49 L 22,48 L 16,42 L 15,40 L 14,38 L 14,31 L 15,27 L 16,25 L 17,23 L 20,20 Z " fill="black" fill-rule="evenodd" /></svg>