<?xml version="1.0" encoding="utf-8" ?>
<svg baseProfile="tiny" height="63" version="1.2" width="52" xmlns="http://www.w3.org/2000/svg" xmlns:ev="http://www.w3.org/2001/xml-events" xmlns:xlink="http://www.w3.org/1999/xlink"><defs /><path d="M 18,10 L 14,13 L 11,17 L 10,20 L 10,25 L 12,27 L 14,25 L 14,21 L 15,19 L 18,16 L 20,15 L 25,15 L 27,16 L 29,18 L 30,20 L 30,23 L 29,26 L 26,32 L 16,42 L 13,46 L 12,49 L 14,51 L 19,52 L 29,52 L 34,51 L 38,50 L 40,49 L 39,46 L 34,48 L 21,49 L 19,47 L 19,45 L 28,36 L 31,32 L 32,30 L 33,28 L 34,25 L 34,22 L 35,21 L 35,19 L 33,15 L 31,13 L 29,12 L 26,11 L 20,10 Z " fill="black" fill-rule="evenodd" /></svg>