<?xml version="1.0" encoding="utf-8" ?>
<svg baseProfile="tiny" height="62" version="1.2" width="61" xmlns="http://www.w3.org/2000/svg" xmlns:ev="http://www.w3.org/2001/xml-events" xmlns:xlink="http://www.w3.org/1999/xlink"><defs /><path d="M 42,10 L 39,12 L 34,12 L 31,14 L 24,14 L 15,17 L 10,17 L 10,20 L 12,22 L 14,22 L 17,20 L 21,20 L 25,18 L 29,18 L 34,15 L 36,17 L 36,19 L 35,21 L 34,23 L 32,25 L 31,27 L 32,30 L 34,31 L 43,30 L 46,33 L 46,39 L 45,41 L 44,43 L 41,46 L 39,47 L 35,47 L 28,45 L 25,43 L 22,42 L 20,42 L 18,45 L 19,47 L 21,48 L 28,51 L 38,51 L 43,49 L 48,44 L 49,42 L 50,40 L 50,30 L 47,27 L 45,26 L 40,27 L 37,24 L 38,22 L 40,19 L 44,15 L 45,13 L 44,10 Z " fill="black" fill-rule="evenodd" /></svg>