<?xml version="1.0" encoding="utf-8" ?>
<svg baseProfile="tiny" height="64" version="1.2" width="52" xmlns="http://www.w3.org/2000/svg" xmlns:ev="http://www.w3.org/2001/xml-events" xmlns:xlink="http://www.w3.org/1999/xlink"><defs /><path d="M 17,11 L 16,13 L 14,17 L 13,20 L 12,24 L 11,28 L 10,34 L 10,36 L 11,39 L 14,42 L 20,42 L 24,41 L 26,40 L 34,33 L 37,36 L 37,45 L 41,52 L 41,39 L 40,20 L 39,18 L 36,18 L 35,20 L 35,29 L 32,32 L 27,33 L 25,34 L 22,37 L 17,39 L 14,36 L 14,34 L 15,28 L 17,23 L 21,16 L 20,10 Z " fill="black" fill-rule="evenodd" /></svg>