<?xml version="1.0" encoding="utf-8" ?>
<svg baseProfile="tiny" height="66" version="1.2" width="54" xmlns="http://www.w3.org/2000/svg" xmlns:ev="http://www.w3.org/2001/xml-events" xmlns:xlink="http://www.w3.org/1999/xlink"><defs /><path d="M 41,10 L 37,12 L 35,12 L 34,11 L 31,11 L 26,14 L 23,15 L 19,16 L 14,15 L 12,16 L 11,18 L 10,21 L 10,36 L 11,38 L 15,38 L 17,38 L 22,35 L 24,35 L 28,33 L 32,37 L 33,40 L 33,47 L 32,49 L 29,52 L 27,52 L 25,51 L 23,49 L 16,51 L 18,53 L 20,54 L 25,55 L 32,55 L 35,52 L 36,50 L 37,45 L 37,40 L 36,35 L 31,30 L 26,30 L 20,31 L 18,33 L 14,32 L 14,22 L 17,19 L 24,18 L 29,18 L 34,16 L 41,16 L 43,14 L 43,12 Z " fill="black" fill-rule="evenodd" /></svg>