<?xml version="1.0" encoding="utf-8" ?>
<svg baseProfile="tiny" height="80" version="1.2" width="63" xmlns="http://www.w3.org/2000/svg" xmlns:ev="http://www.w3.org/2001/xml-events" xmlns:xlink="http://www.w3.org/1999/xlink"><defs /><path d="M 42,10 L 38,11 L 33,13 L 31,14 L 29,15 L 24,19 L 22,21 L 18,26 L 16,29 L 15,31 L 15,35 L 14,37 L 13,39 L 10,42 L 10,45 L 11,57 L 12,59 L 13,61 L 19,67 L 21,68 L 24,69 L 28,69 L 30,68 L 32,67 L 39,60 L 40,58 L 41,56 L 41,52 L 40,49 L 39,47 L 38,45 L 34,41 L 31,41 L 28,39 L 20,39 L 17,36 L 18,34 L 21,28 L 30,19 L 33,17 L 35,16 L 40,14 L 49,15 L 52,13 L 50,11 L 47,10 Z M 19,41 L 26,42 L 28,43 L 34,49 L 35,51 L 35,58 L 34,60 L 30,64 L 28,65 L 23,65 L 21,64 L 18,61 L 16,58 L 15,56 L 14,53 L 14,47 L 15,44 Z " fill="black" fill-rule="evenodd" /></svg>