<?xml version="1.0" encoding="utf-8" ?>
<svg baseProfile="tiny" height="73" version="1.2" width="75" xmlns="http://www.w3.org/2000/svg" xmlns:ev="http://www.w3.org/2001/xml-events" xmlns:xlink="http://www.w3.org/1999/xlink"><defs /><path d="M 49,10 L 47,11 L 44,13 L 38,13 L 33,15 L 22,16 L 18,18 L 15,19 L 12,18 L 11,22 L 11,23 L 14,24 L 19,21 L 22,20 L 25,19 L 30,18 L 35,18 L 38,17 L 40,16 L 43,19 L 42,22 L 40,26 L 40,32 L 39,35 L 36,38 L 34,38 L 23,37 L 21,39 L 22,41 L 24,42 L 27,43 L 33,42 L 35,42 L 37,44 L 36,57 L 36,60 L 39,62 L 41,60 L 42,55 L 42,44 L 43,42 L 44,41 L 46,40 L 55,39 L 61,40 L 63,39 L 63,35 L 58,35 L 48,37 L 45,37 L 43,35 L 43,33 L 46,22 L 50,14 Z " fill="black" fill-rule="evenodd" /></svg>