<?xml version="1.0" encoding="utf-8" ?>
<svg baseProfile="tiny" height="74" version="1.2" width="52" xmlns="http://www.w3.org/2000/svg" xmlns:ev="http://www.w3.org/2001/xml-events" xmlns:xlink="http://www.w3.org/1999/xlink"><defs /><path d="M 22,10 L 20,11 L 18,12 L 15,15 L 12,21 L 12,25 L 13,28 L 14,30 L 15,32 L 17,34 L 19,38 L 16,41 L 13,42 L 12,43 L 11,45 L 10,47 L 10,53 L 11,55 L 14,58 L 20,61 L 26,63 L 28,63 L 31,62 L 37,59 L 39,57 L 41,53 L 41,51 L 40,49 L 35,44 L 31,42 L 28,39 L 28,37 L 30,35 L 36,30 L 37,28 L 38,26 L 39,23 L 39,19 L 37,14 L 33,10 Z M 24,41 L 26,42 L 31,47 L 32,47 L 36,51 L 36,54 L 32,58 L 23,58 L 20,55 L 19,55 L 17,53 L 16,50 L 17,48 L 19,45 Z M 23,14 L 30,14 L 32,15 L 34,17 L 35,19 L 35,23 L 34,26 L 33,28 L 28,33 L 25,35 L 23,35 L 20,32 L 17,26 L 17,20 L 18,18 L 21,15 Z " fill="black" fill-rule="evenodd" /></svg>