<?xml version="1.0" encoding="utf-8" ?>
<svg baseProfile="tiny" height="79" version="1.2" width="53" xmlns="http://www.w3.org/2000/svg" xmlns:ev="http://www.w3.org/2001/xml-events" xmlns:xlink="http://www.w3.org/1999/xlink"><defs /><path d="M 25,10 L 22,11 L 20,12 L 17,14 L 14,16 L 12,18 L 11,20 L 10,23 L 10,28 L 11,31 L 12,33 L 16,37 L 22,40 L 25,40 L 26,41 L 28,41 L 34,38 L 36,39 L 38,45 L 38,54 L 37,57 L 36,59 L 32,63 L 30,64 L 25,64 L 16,63 L 11,62 L 11,64 L 13,66 L 16,67 L 22,68 L 29,68 L 37,64 L 39,62 L 42,56 L 42,42 L 39,35 L 39,30 L 40,20 L 39,17 L 38,15 L 35,12 L 33,11 L 30,10 Z M 24,14 L 31,14 L 34,17 L 35,28 L 35,31 L 34,33 L 30,37 L 27,37 L 23,36 L 21,35 L 15,29 L 15,23 L 16,21 L 22,15 Z " fill="black" fill-rule="evenodd" /></svg>