<?xml version="1.0" encoding="utf-8" ?>
<svg baseProfile="tiny" height="79" version="1.2" width="71" xmlns="http://www.w3.org/2000/svg" xmlns:ev="http://www.w3.org/2001/xml-events" xmlns:xlink="http://www.w3.org/1999/xlink"><defs /><path d="M 28,10 L 21,16 L 14,23 L 11,29 L 10,37 L 10,44 L 11,48 L 14,54 L 19,59 L 25,62 L 29,63 L 32,63 L 35,62 L 38,61 L 40,60 L 42,59 L 49,53 L 52,56 L 52,59 L 54,64 L 55,66 L 57,68 L 60,68 L 60,66 L 57,61 L 56,55 L 55,52 L 52,48 L 52,39 L 53,26 L 52,16 L 50,14 L 48,15 L 47,17 L 47,29 L 48,30 L 48,43 L 47,46 L 46,48 L 45,50 L 40,55 L 35,56 L 31,58 L 29,58 L 24,57 L 22,56 L 18,52 L 15,46 L 15,33 L 16,29 L 17,27 L 19,25 L 24,21 L 26,20 L 28,19 L 32,19 L 34,20 L 38,23 L 42,23 L 42,21 L 39,17 L 39,16 L 38,14 L 37,13 L 35,12 L 30,10 Z " fill="black" fill-rule="evenodd" /></svg>