<?xml version="1.0" encoding="utf-8" ?>
<svg baseProfile="tiny" height="71" version="1.2" width="69" xmlns="http://www.w3.org/2000/svg" xmlns:ev="http://www.w3.org/2001/xml-events" xmlns:xlink="http://www.w3.org/1999/xlink"><defs /><path d="M 51,10 L 49,12 L 48,15 L 47,18 L 45,27 L 45,33 L 44,37 L 43,40 L 42,42 L 35,49 L 33,50 L 31,51 L 28,52 L 25,52 L 22,51 L 20,50 L 16,46 L 15,44 L 14,42 L 13,39 L 13,34 L 14,29 L 15,27 L 17,24 L 21,20 L 29,20 L 36,21 L 40,23 L 42,21 L 37,16 L 35,15 L 27,15 L 22,16 L 20,17 L 18,18 L 14,22 L 12,25 L 11,27 L 10,31 L 10,41 L 11,44 L 12,46 L 13,48 L 17,52 L 23,55 L 30,55 L 38,51 L 41,48 L 43,48 L 45,50 L 45,54 L 46,56 L 49,59 L 51,60 L 57,57 L 53,57 L 49,53 L 48,51 L 47,46 L 47,39 L 48,33 L 49,28 L 50,24 L 53,17 L 53,12 Z " fill="black" fill-rule="evenodd" /></svg>