<?xml version="1.0" encoding="utf-8" ?>
<svg baseProfile="tiny" height="101" version="1.2" width="63" xmlns="http://www.w3.org/2000/svg" xmlns:ev="http://www.w3.org/2001/xml-events" xmlns:xlink="http://www.w3.org/1999/xlink"><defs /><path d="M 36,10 L 29,13 L 27,14 L 24,17 L 23,19 L 24,26 L 24,29 L 22,32 L 22,36 L 20,39 L 18,46 L 17,55 L 16,59 L 15,64 L 12,69 L 12,80 L 10,87 L 11,89 L 13,90 L 15,89 L 16,87 L 16,84 L 18,80 L 18,71 L 20,68 L 20,65 L 19,64 L 19,61 L 21,58 L 21,51 L 23,47 L 23,42 L 25,36 L 29,26 L 29,21 L 30,19 L 33,16 L 36,15 L 38,16 L 42,20 L 43,22 L 43,26 L 45,30 L 45,41 L 47,46 L 47,49 L 45,51 L 39,52 L 28,52 L 26,53 L 26,57 L 44,56 L 47,59 L 47,86 L 50,88 L 52,86 L 52,81 L 51,50 L 50,34 L 48,30 L 48,25 L 47,21 L 46,19 L 45,17 L 42,14 L 42,13 L 40,11 L 38,10 Z " fill="black" fill-rule="evenodd" /></svg>