<?xml version="1.0" encoding="utf-8" ?>
<svg baseProfile="tiny" height="92" version="1.2" width="66" xmlns="http://www.w3.org/2000/svg" xmlns:ev="http://www.w3.org/2001/xml-events" xmlns:xlink="http://www.w3.org/1999/xlink"><defs /><path d="M 43,10 L 39,11 L 36,12 L 34,13 L 31,16 L 30,16 L 28,18 L 27,20 L 26,22 L 26,28 L 24,34 L 20,47 L 14,63 L 13,70 L 11,73 L 10,76 L 10,81 L 12,81 L 14,79 L 15,76 L 16,73 L 17,69 L 17,65 L 19,58 L 21,53 L 25,49 L 28,51 L 34,51 L 47,50 L 50,53 L 50,56 L 48,61 L 48,67 L 46,73 L 47,75 L 49,75 L 51,73 L 51,65 L 52,57 L 54,53 L 55,42 L 55,27 L 54,21 L 53,18 L 52,15 L 51,13 L 49,11 L 47,10 Z M 40,13 L 45,13 L 47,14 L 49,16 L 50,18 L 51,22 L 52,30 L 52,34 L 51,45 L 49,47 L 35,48 L 27,48 L 25,48 L 23,46 L 23,44 L 25,41 L 26,38 L 27,32 L 28,29 L 30,26 L 30,23 L 31,21 L 38,14 Z " fill="black" fill-rule="evenodd" /></svg>