<?xml version="1.0" encoding="utf-8" ?>
<svg baseProfile="tiny" height="79" version="1.2" width="52" xmlns="http://www.w3.org/2000/svg" xmlns:ev="http://www.w3.org/2001/xml-events" xmlns:xlink="http://www.w3.org/1999/xlink"><defs /><path d="M 12,11 L 12,34 L 10,43 L 10,60 L 11,66 L 13,68 L 16,65 L 18,64 L 21,64 L 22,65 L 25,65 L 26,64 L 30,64 L 32,63 L 35,61 L 39,57 L 40,55 L 41,53 L 41,46 L 40,43 L 39,41 L 35,37 L 33,36 L 31,35 L 17,36 L 14,32 L 16,15 L 15,10 Z M 19,38 L 31,38 L 33,39 L 36,42 L 37,44 L 38,46 L 38,52 L 37,54 L 31,60 L 29,61 L 26,62 L 18,62 L 16,60 L 15,48 L 15,43 L 16,41 Z " fill="black" fill-rule="evenodd" /></svg>