<?xml version="1.0" encoding="utf-8" ?>
<svg baseProfile="tiny" height="96" version="1.2" width="63" xmlns="http://www.w3.org/2000/svg" xmlns:ev="http://www.w3.org/2001/xml-events" xmlns:xlink="http://www.w3.org/1999/xlink"><defs /><path d="M 12,11 L 12,15 L 11,16 L 11,19 L 12,39 L 14,41 L 10,46 L 12,49 L 12,53 L 14,56 L 15,59 L 15,73 L 16,75 L 18,78 L 22,82 L 24,83 L 26,84 L 30,84 L 31,85 L 34,85 L 37,84 L 45,80 L 47,78 L 51,70 L 52,66 L 52,62 L 51,57 L 48,51 L 41,44 L 39,43 L 37,43 L 35,41 L 32,41 L 31,40 L 29,40 L 28,43 L 23,43 L 16,41 L 16,39 L 18,28 L 18,16 L 17,12 L 16,10 Z M 29,47 L 33,47 L 37,48 L 39,49 L 44,54 L 45,56 L 46,58 L 47,64 L 47,66 L 46,69 L 45,71 L 44,73 L 40,77 L 38,78 L 36,79 L 26,79 L 24,78 L 22,77 L 21,76 L 20,74 L 19,58 L 19,52 L 22,49 L 24,48 Z " fill="black" fill-rule="evenodd" /></svg>