<?xml version="1.0" encoding="utf-8" ?>
<svg baseProfile="tiny" height="96" version="1.2" width="65" xmlns="http://www.w3.org/2000/svg" xmlns:ev="http://www.w3.org/2001/xml-events" xmlns:xlink="http://www.w3.org/1999/xlink"><defs /><path d="M 26,10 L 25,11 L 20,11 L 18,12 L 16,13 L 12,17 L 10,21 L 10,23 L 14,28 L 15,30 L 15,37 L 13,53 L 13,66 L 14,79 L 16,81 L 20,81 L 22,83 L 25,84 L 29,85 L 35,85 L 38,84 L 40,83 L 42,82 L 45,80 L 50,75 L 53,69 L 54,65 L 54,59 L 53,56 L 52,53 L 51,51 L 46,46 L 43,45 L 41,44 L 40,39 L 43,34 L 44,29 L 44,21 L 41,15 L 39,13 L 37,12 L 35,11 L 30,10 Z M 29,14 L 33,15 L 35,16 L 38,19 L 39,21 L 39,31 L 38,34 L 35,40 L 31,44 L 30,44 L 27,47 L 27,51 L 29,53 L 31,53 L 34,50 L 38,48 L 40,48 L 42,49 L 47,54 L 48,56 L 49,59 L 49,65 L 46,71 L 40,77 L 38,78 L 36,79 L 33,80 L 31,80 L 28,79 L 22,76 L 19,73 L 18,69 L 19,41 L 19,27 L 15,23 L 15,21 L 17,19 L 19,18 L 21,17 L 23,17 L 26,15 Z " fill="black" fill-rule="evenodd" /></svg>