<?xml version="1.0" encoding="utf-8" ?>
<svg baseProfile="tiny" height="86" version="1.2" width="70" xmlns="http://www.w3.org/2000/svg" xmlns:ev="http://www.w3.org/2001/xml-events" xmlns:xlink="http://www.w3.org/1999/xlink"><defs /><path d="M 24,10 L 21,11 L 19,12 L 17,13 L 14,16 L 13,18 L 10,25 L 10,28 L 11,30 L 16,32 L 16,30 L 14,26 L 16,23 L 16,21 L 17,19 L 23,13 L 36,13 L 38,14 L 44,20 L 45,22 L 45,25 L 44,28 L 41,34 L 36,39 L 36,41 L 39,41 L 41,40 L 45,37 L 48,36 L 52,38 L 54,40 L 55,42 L 56,44 L 56,51 L 54,56 L 52,59 L 49,62 L 45,65 L 43,66 L 39,66 L 33,63 L 29,60 L 28,59 L 27,57 L 26,49 L 23,27 L 22,38 L 22,40 L 23,65 L 21,70 L 21,73 L 23,75 L 25,73 L 26,70 L 26,65 L 29,63 L 31,65 L 34,66 L 39,70 L 41,70 L 44,69 L 50,66 L 55,61 L 57,58 L 58,56 L 59,53 L 59,42 L 58,40 L 53,35 L 51,34 L 46,33 L 46,30 L 48,26 L 48,22 L 47,19 L 46,17 L 42,13 L 36,10 Z " fill="black" fill-rule="evenodd" /></svg>