<?xml version="1.0" encoding="utf-8" ?>
<svg baseProfile="tiny" height="64" version="1.2" width="50" xmlns="http://www.w3.org/2000/svg" xmlns:ev="http://www.w3.org/2001/xml-events" xmlns:xlink="http://www.w3.org/1999/xlink"><defs /><path d="M 28,10 L 25,11 L 19,14 L 16,17 L 13,21 L 12,23 L 11,26 L 10,29 L 10,43 L 11,46 L 12,48 L 15,51 L 17,52 L 19,53 L 32,53 L 34,49 L 20,50 L 18,49 L 15,46 L 14,44 L 13,37 L 13,31 L 14,28 L 15,25 L 16,23 L 23,16 L 26,15 L 30,16 L 31,15 L 34,15 L 37,17 L 39,15 L 38,13 L 37,12 L 35,11 L 33,10 Z " fill="black" fill-rule="evenodd" /></svg>