<?xml version="1.0" encoding="utf-8" ?>
<svg baseProfile="tiny" height="73" version="1.2" width="65" xmlns="http://www.w3.org/2000/svg" xmlns:ev="http://www.w3.org/2001/xml-events" xmlns:xlink="http://www.w3.org/1999/xlink"><defs /><path d="M 28,10 L 25,11 L 23,12 L 17,18 L 14,22 L 13,24 L 10,33 L 10,43 L 11,48 L 12,50 L 13,52 L 17,56 L 20,58 L 22,59 L 24,60 L 27,61 L 31,62 L 37,62 L 44,61 L 49,60 L 52,59 L 54,56 L 52,56 L 44,58 L 40,58 L 31,57 L 28,56 L 22,53 L 17,48 L 16,46 L 15,43 L 15,34 L 16,30 L 20,22 L 24,18 L 28,15 L 30,14 L 37,14 L 41,15 L 44,16 L 46,17 L 49,20 L 51,20 L 51,17 L 47,13 L 45,12 L 43,11 L 39,10 Z " fill="black" fill-rule="evenodd" /></svg>