<?xml version="1.0" encoding="utf-8" ?>
<svg baseProfile="tiny" height="76" version="1.2" width="53" xmlns="http://www.w3.org/2000/svg" xmlns:ev="http://www.w3.org/2001/xml-events" xmlns:xlink="http://www.w3.org/1999/xlink"><defs /><path d="M 31,10 L 28,11 L 26,12 L 17,21 L 13,29 L 12,32 L 11,35 L 10,41 L 10,48 L 11,54 L 12,58 L 14,62 L 16,64 L 18,65 L 25,65 L 32,61 L 35,60 L 35,58 L 31,60 L 24,61 L 18,61 L 16,59 L 15,57 L 14,52 L 14,37 L 17,28 L 18,26 L 19,24 L 22,20 L 27,15 L 29,14 L 36,14 L 42,17 L 42,15 L 41,13 L 39,11 L 37,10 Z " fill="black" fill-rule="evenodd" /></svg>