<?xml version="1.0" encoding="utf-8" ?>
<svg baseProfile="tiny" height="78" version="1.2" width="62" xmlns="http://www.w3.org/2000/svg" xmlns:ev="http://www.w3.org/2001/xml-events" xmlns:xlink="http://www.w3.org/1999/xlink"><defs /><path d="M 32,10 L 28,11 L 26,12 L 24,13 L 20,16 L 15,21 L 13,24 L 12,26 L 11,28 L 10,32 L 10,45 L 11,49 L 12,52 L 15,58 L 19,62 L 23,65 L 25,66 L 29,67 L 40,67 L 46,66 L 49,65 L 51,63 L 30,62 L 27,61 L 25,60 L 23,59 L 20,56 L 17,51 L 16,49 L 15,46 L 14,41 L 14,37 L 15,33 L 19,25 L 26,18 L 29,16 L 31,15 L 39,15 L 41,16 L 43,18 L 45,19 L 47,16 L 46,14 L 44,12 L 42,11 L 40,10 Z " fill="black" fill-rule="evenodd" /></svg>