<?xml version="1.0" encoding="utf-8" ?>
<svg baseProfile="tiny" height="17" version="1.2" width="1445" xmlns="http://www.w3.org/2000/svg" xmlns:ev="http://www.w3.org/2001/xml-events" xmlns:xlink="http://www.w3.org/1999/xlink"><defs /><path d="M 0,2 L 0,4 L 5,5 L 7,5 L 21,5 L 29,5 L 43,5 L 46,5 L 51,4 L 60,4 L 64,4 L 65,5 L 68,5 L 75,4 L 82,4 L 83,5 L 93,4 L 114,4 L 117,4 L 130,6 L 135,4 L 137,4 L 142,5 L 143,4 L 147,4 L 148,5 L 152,5 L 160,4 L 174,6 L 178,4 L 186,5 L 188,5 L 189,4 L 191,4 L 200,4 L 202,4 L 206,5 L 207,4 L 211,5 L 214,5 L 218,5 L 219,4 L 224,4 L 232,5 L 233,4 L 240,4 L 241,5 L 248,5 L 249,4 L 255,4 L 256,5 L 263,4 L 274,4 L 278,4 L 279,5 L 283,5 L 292,5 L 294,5 L 299,4 L 337,4 L 358,4 L 362,4 L 363,5 L 367,5 L 374,5 L 377,5 L 408,5 L 411,5 L 412,4 L 415,4 L 416,5 L 419,5 L 430,5 L 439,4 L 445,5 L 448,5 L 461,5 L 463,5 L 477,5 L 487,4 L 494,4 L 511,4 L 518,5 L 521,5 L 530,4 L 543,4 L 546,4 L 547,5 L 550,5 L 567,4 L 591,4 L 593,4 L 602,4 L 604,4 L 617,5 L 618,4 L 632,5 L 635,5 L 640,4 L 647,5 L 648,4 L 654,5 L 656,5 L 680,5 L 683,5 L 690,4 L 707,5 L 728,5 L 735,4 L 738,4 L 744,5 L 754,5 L 757,5 L 763,4 L 778,4 L 786,4 L 813,4 L 825,5 L 830,4 L 840,4 L 845,5 L 852,4 L 863,4 L 865,4 L 908,4 L 913,5 L 915,5 L 935,5 L 940,5 L 952,5 L 961,4 L 966,4 L 967,5 L 972,5 L 983,4 L 1001,6 L 1003,6 L 1009,4 L 1013,4 L 1045,4 L 1056,6 L 1068,4 L 1076,4 L 1101,4 L 1103,4 L 1114,6 L 1155,6 L 1157,6 L 1162,4 L 1164,4 L 1185,6 L 1189,4 L 1194,4 L 1234,4 L 1236,4 L 1237,5 L 1239,5 L 1245,5 L 1248,5 L 1249,4 L 1252,4 L 1253,5 L 1256,5 L 1262,4 L 1275,4 L 1283,4 L 1295,4 L 1298,4 L 1304,4 L 1306,4 L 1334,6 L 1366,6 L 1372,4 L 1378,4 L 1381,4 L 1394,4 L 1397,4 L 1444,5 L 1444,2 Z " fill="black" fill-rule="evenodd" /></svg>