<?xml version="1.0" encoding="utf-8" ?>
<svg baseProfile="tiny" height="29" version="1.2" width="40" xmlns="http://www.w3.org/2000/svg" xmlns:ev="http://www.w3.org/2001/xml-events" xmlns:xlink="http://www.w3.org/1999/xlink"><defs /><path d="M 17,23 L 17,25 L 20,25 L 22,24 L 22,22 Z M 34,13 L 34,16 L 33,17 L 33,19 L 36,23 L 32,26 L 28,25 L 26,27 L 39,28 L 39,15 L 36,12 Z M 0,12 L 1,15 L 3,16 L 7,16 L 6,14 L 2,12 Z M 13,10 L 10,11 L 12,13 L 17,16 L 22,16 L 25,18 L 29,17 L 27,15 L 22,14 Z " fill="black" fill-rule="evenodd" /></svg>