<?xml version="1.0" encoding="utf-8" ?>
<svg baseProfile="tiny" height="65" version="1.2" width="85" xmlns="http://www.w3.org/2000/svg" xmlns:ev="http://www.w3.org/2001/xml-events" xmlns:xlink="http://www.w3.org/1999/xlink"><defs /><path d="M 57,10 L 54,11 L 50,15 L 50,16 L 47,19 L 45,20 L 41,21 L 37,21 L 30,24 L 27,21 L 27,14 L 26,12 L 22,11 L 21,13 L 21,15 L 21,25 L 19,26 L 12,26 L 10,29 L 11,31 L 13,32 L 15,31 L 17,29 L 20,28 L 23,31 L 23,37 L 21,39 L 20,41 L 20,43 L 22,46 L 23,54 L 26,54 L 28,52 L 36,52 L 47,49 L 50,47 L 54,47 L 58,49 L 61,49 L 64,48 L 66,47 L 73,40 L 74,38 L 74,25 L 73,23 L 61,11 L 59,10 Z M 42,36 L 45,36 L 47,38 L 49,43 L 46,46 L 42,47 L 38,48 L 33,49 L 28,49 L 26,47 L 26,44 L 27,42 L 28,41 L 30,40 L 33,39 L 36,39 L 39,38 Z M 42,23 L 45,26 L 45,31 L 42,34 L 38,34 L 32,37 L 29,37 L 27,35 L 27,29 L 30,26 L 35,26 Z M 57,19 L 62,19 L 64,20 L 68,24 L 69,26 L 70,28 L 70,31 L 69,34 L 68,37 L 63,42 L 59,43 L 55,43 L 52,40 L 51,38 L 51,36 L 54,33 L 63,32 L 65,31 L 66,29 L 62,28 L 58,29 L 54,31 L 51,31 L 49,29 L 49,24 L 52,21 L 54,20 Z " fill="black" fill-rule="evenodd" /></svg>