<?xml version="1.0" encoding="utf-8" ?>
<svg baseProfile="tiny" height="43" version="1.2" width="32" xmlns="http://www.w3.org/2000/svg" xmlns:ev="http://www.w3.org/2001/xml-events" xmlns:xlink="http://www.w3.org/1999/xlink"><defs /><path d="M 29,26 L 27,28 L 26,30 L 26,34 L 29,35 L 31,34 L 31,32 L 30,31 L 30,29 L 31,28 L 31,26 Z M 25,20 L 23,22 L 25,23 L 27,23 L 29,22 L 30,20 Z M 16,13 L 17,16 L 19,18 L 16,20 L 11,14 L 10,16 L 10,18 L 12,20 L 13,26 L 13,29 L 11,31 L 15,30 L 15,25 L 19,22 L 17,20 L 20,19 L 19,17 L 21,13 L 19,10 Z M 4,0 L 5,4 L 6,7 L 7,9 L 10,10 L 10,4 L 13,0 Z " fill="black" fill-rule="evenodd" /></svg>