<?xml version="1.0" encoding="utf-8" ?>
<svg baseProfile="tiny" height="407" version="1.2" width="79" xmlns="http://www.w3.org/2000/svg" xmlns:ev="http://www.w3.org/2001/xml-events" xmlns:xlink="http://www.w3.org/1999/xlink"><defs /><path d="M 63,326 L 63,328 L 65,330 L 65,331 L 68,331 L 67,329 Z M 71,320 L 77,326 L 78,330 L 78,321 L 75,322 L 72,318 Z M 75,312 L 73,315 L 75,315 L 76,314 L 78,314 L 78,311 Z M 55,253 L 52,256 L 55,256 L 57,254 L 59,254 L 60,255 L 64,253 Z M 43,151 L 42,152 L 38,152 L 38,154 L 41,154 L 42,153 L 45,153 L 45,151 Z M 35,116 L 36,118 L 40,122 L 42,122 L 40,120 L 40,119 L 37,116 Z M 38,102 L 36,103 L 35,106 L 37,106 L 39,104 L 46,104 L 45,102 Z M 26,10 L 25,12 L 24,14 L 24,17 L 22,20 L 22,26 L 19,32 L 21,35 L 21,39 L 19,40 L 19,45 L 17,47 L 17,50 L 19,52 L 18,54 L 16,57 L 16,69 L 14,76 L 14,92 L 12,105 L 13,107 L 11,120 L 12,126 L 12,128 L 10,131 L 11,139 L 10,140 L 10,147 L 12,159 L 10,163 L 10,165 L 10,173 L 10,175 L 12,186 L 12,200 L 14,207 L 14,209 L 13,214 L 15,220 L 15,230 L 18,238 L 19,252 L 21,256 L 21,262 L 21,264 L 22,267 L 24,272 L 24,277 L 28,282 L 28,287 L 31,295 L 36,304 L 36,309 L 38,313 L 37,317 L 38,319 L 43,324 L 44,326 L 43,332 L 45,336 L 46,338 L 47,339 L 48,339 L 49,340 L 51,343 L 53,352 L 54,354 L 55,356 L 59,360 L 60,365 L 61,365 L 62,366 L 65,370 L 67,374 L 72,383 L 75,389 L 76,394 L 78,396 L 78,380 L 73,376 L 72,371 L 70,369 L 69,364 L 66,361 L 65,359 L 65,356 L 64,355 L 64,353 L 62,352 L 62,350 L 60,348 L 60,346 L 58,344 L 57,342 L 57,339 L 53,335 L 52,328 L 51,326 L 48,323 L 47,321 L 48,319 L 44,315 L 44,311 L 41,306 L 40,300 L 37,296 L 37,292 L 34,288 L 35,283 L 34,281 L 32,279 L 31,276 L 30,268 L 29,265 L 26,259 L 26,253 L 24,248 L 24,241 L 22,235 L 21,228 L 21,215 L 20,212 L 18,210 L 19,205 L 17,184 L 18,177 L 16,173 L 16,169 L 17,158 L 15,156 L 15,148 L 16,146 L 15,142 L 17,132 L 16,126 L 19,120 L 21,122 L 20,127 L 22,130 L 20,131 L 20,134 L 19,135 L 19,139 L 22,139 L 23,133 L 23,126 L 22,121 L 23,117 L 17,115 L 18,113 L 20,110 L 18,108 L 19,103 L 22,102 L 24,98 L 22,99 L 21,98 L 18,97 L 20,95 L 24,94 L 25,87 L 25,84 L 23,84 L 22,83 L 20,82 L 22,80 L 22,77 L 19,73 L 20,68 L 23,67 L 22,65 L 24,63 L 24,61 L 22,59 L 21,59 L 20,57 L 22,55 L 23,47 L 24,47 L 26,45 L 25,42 L 24,42 L 23,38 L 26,35 L 28,35 L 26,31 L 28,20 L 29,22 L 31,22 L 30,20 L 27,19 L 27,16 L 28,15 Z M 21,87 L 24,88 L 24,90 L 23,92 L 20,95 L 19,93 L 18,92 L 18,90 Z M 23,2 L 23,4 L 24,6 L 27,7 L 27,2 Z " fill="black" fill-rule="evenodd" /></svg>