<?xml version="1.0" encoding="utf-8" ?>
<svg baseProfile="tiny" height="95" version="1.2" width="63" xmlns="http://www.w3.org/2000/svg" xmlns:ev="http://www.w3.org/2001/xml-events" xmlns:xlink="http://www.w3.org/1999/xlink"><defs /><path d="M 34,87 L 35,90 L 37,92 L 34,94 L 29,88 L 28,90 L 28,92 L 30,94 L 35,94 L 38,93 L 37,91 L 39,87 L 37,84 Z M 45,79 L 45,81 L 57,79 Z M 28,10 L 20,11 L 18,12 L 13,17 L 12,19 L 13,26 L 13,28 L 12,31 L 10,35 L 10,37 L 13,42 L 14,46 L 14,50 L 18,61 L 18,65 L 20,70 L 22,72 L 23,75 L 23,78 L 24,81 L 25,83 L 28,84 L 28,78 L 31,73 L 30,65 L 28,64 L 24,64 L 23,59 L 21,57 L 20,52 L 17,47 L 19,45 L 23,45 L 26,44 L 28,43 L 30,41 L 30,40 L 33,37 L 34,34 L 33,32 L 32,30 L 28,26 L 25,26 L 24,25 L 22,25 L 21,26 L 18,26 L 15,22 L 16,20 L 19,17 L 21,16 L 26,14 L 32,14 L 36,15 L 38,17 L 38,19 L 37,20 L 36,24 L 37,26 L 40,28 L 40,38 L 41,45 L 43,48 L 44,51 L 44,54 L 41,57 L 40,57 L 38,59 L 38,61 L 39,62 L 38,66 L 35,67 L 35,69 L 37,71 L 40,72 L 43,71 L 43,70 L 44,68 L 42,65 L 43,62 L 46,62 L 48,64 L 48,65 L 50,67 L 52,67 L 51,61 L 47,53 L 47,46 L 45,43 L 45,36 L 44,31 L 43,26 L 42,24 L 40,22 L 38,16 L 38,11 L 36,10 Z M 18,28 L 20,28 L 23,30 L 26,30 L 29,34 L 23,40 L 21,41 L 19,41 L 17,40 L 15,38 L 15,31 Z " fill="black" fill-rule="evenodd" /></svg>