<?xml version="1.0" encoding="utf-8" ?>
<svg baseProfile="tiny" height="89" version="1.2" width="62" xmlns="http://www.w3.org/2000/svg" xmlns:ev="http://www.w3.org/2001/xml-events" xmlns:xlink="http://www.w3.org/1999/xlink"><defs /><path d="M 45,11 L 45,24 L 43,35 L 44,56 L 44,62 L 43,64 L 35,72 L 33,73 L 29,74 L 19,74 L 17,73 L 15,71 L 14,69 L 13,67 L 13,60 L 14,56 L 15,54 L 16,52 L 22,46 L 24,45 L 28,45 L 29,46 L 35,44 L 33,42 L 31,41 L 29,41 L 28,42 L 25,42 L 22,43 L 20,44 L 18,45 L 14,49 L 11,55 L 10,59 L 10,68 L 11,71 L 12,73 L 15,76 L 17,77 L 21,77 L 22,78 L 25,78 L 29,77 L 32,76 L 35,75 L 37,74 L 43,69 L 45,71 L 45,73 L 47,75 L 51,73 L 49,71 L 48,69 L 47,67 L 47,61 L 49,49 L 48,10 Z " fill="black" fill-rule="evenodd" /></svg>