<?xml version="1.0" encoding="utf-8" ?>
<svg baseProfile="tiny" height="102" version="1.2" width="63" xmlns="http://www.w3.org/2000/svg" xmlns:ev="http://www.w3.org/2001/xml-events" xmlns:xlink="http://www.w3.org/1999/xlink"><defs /><path d="M 42,10 L 40,12 L 40,17 L 38,24 L 39,47 L 36,50 L 27,50 L 24,51 L 21,52 L 19,53 L 13,59 L 12,61 L 11,64 L 10,67 L 10,79 L 11,81 L 12,83 L 17,88 L 19,89 L 21,90 L 24,91 L 30,91 L 36,88 L 43,81 L 45,82 L 46,83 L 47,85 L 47,86 L 48,88 L 52,87 L 51,85 L 48,80 L 46,73 L 46,71 L 48,61 L 48,39 L 47,32 L 45,26 L 45,18 L 44,12 Z M 25,55 L 30,55 L 34,56 L 36,57 L 39,60 L 40,62 L 41,66 L 42,70 L 42,75 L 39,79 L 33,85 L 31,86 L 28,87 L 25,87 L 19,84 L 16,81 L 15,79 L 14,77 L 14,68 L 16,63 L 17,61 L 21,57 L 23,56 Z M 42,37 L 45,38 L 46,49 L 45,51 L 43,54 L 41,58 L 39,56 L 39,51 L 41,49 Z " fill="black" fill-rule="evenodd" /></svg>