<?xml version="1.0" encoding="utf-8" ?>
<svg baseProfile="tiny" height="82" version="1.2" width="64" xmlns="http://www.w3.org/2000/svg" xmlns:ev="http://www.w3.org/2001/xml-events" xmlns:xlink="http://www.w3.org/1999/xlink"><defs /><path d="M 12,10 L 10,12 L 10,16 L 14,19 L 14,18 L 18,18 L 19,37 L 19,43 L 17,61 L 17,65 L 19,67 L 21,66 L 22,64 L 23,52 L 23,29 L 21,23 L 21,21 L 22,18 L 25,15 L 27,15 L 34,16 L 36,17 L 38,18 L 44,24 L 45,26 L 46,28 L 47,31 L 48,34 L 49,41 L 49,48 L 48,52 L 47,55 L 46,57 L 45,59 L 40,64 L 34,67 L 25,68 L 25,70 L 27,71 L 36,71 L 39,70 L 45,67 L 48,64 L 49,62 L 50,60 L 53,51 L 53,39 L 52,34 L 50,27 L 49,25 L 48,23 L 46,20 L 41,15 L 39,14 L 37,13 L 34,12 L 30,11 L 25,10 Z " fill="black" fill-rule="evenodd" /></svg>