<?xml version="1.0" encoding="utf-8" ?>
<svg baseProfile="tiny" height="77" version="1.2" width="64" xmlns="http://www.w3.org/2000/svg" xmlns:ev="http://www.w3.org/2001/xml-events" xmlns:xlink="http://www.w3.org/1999/xlink"><defs /><path d="M 27,10 L 22,11 L 19,12 L 17,13 L 15,14 L 11,18 L 10,20 L 10,22 L 12,26 L 15,28 L 15,22 L 16,20 L 18,18 L 20,17 L 23,20 L 22,33 L 22,37 L 23,53 L 24,60 L 28,64 L 31,66 L 37,66 L 43,63 L 50,56 L 51,54 L 52,51 L 53,48 L 53,37 L 51,33 L 51,29 L 50,26 L 49,24 L 48,22 L 45,17 L 41,13 L 35,10 Z M 29,13 L 35,13 L 37,14 L 44,21 L 45,23 L 46,25 L 48,30 L 50,37 L 50,46 L 49,50 L 48,52 L 47,54 L 40,61 L 38,62 L 35,63 L 33,63 L 31,62 L 29,61 L 28,60 L 27,58 L 26,47 L 26,16 Z " fill="black" fill-rule="evenodd" /></svg>