<?xml version="1.0" encoding="utf-8" ?>
<svg baseProfile="tiny" height="68" version="1.2" width="61" xmlns="http://www.w3.org/2000/svg" xmlns:ev="http://www.w3.org/2001/xml-events" xmlns:xlink="http://www.w3.org/1999/xlink"><defs /><path d="M 24,10 L 22,11 L 17,16 L 15,19 L 14,21 L 13,23 L 12,26 L 11,33 L 10,41 L 10,43 L 12,48 L 13,50 L 18,55 L 20,56 L 24,57 L 39,57 L 45,56 L 48,55 L 50,54 L 50,52 L 48,52 L 42,54 L 31,54 L 25,53 L 23,52 L 21,51 L 16,46 L 15,44 L 14,38 L 17,35 L 28,35 L 32,34 L 36,32 L 38,30 L 39,28 L 40,26 L 40,17 L 39,15 L 35,11 L 32,10 Z M 24,15 L 28,15 L 33,19 L 36,22 L 36,26 L 35,28 L 34,29 L 32,30 L 30,31 L 22,31 L 18,30 L 16,28 L 16,26 L 17,24 L 18,22 L 20,19 Z " fill="black" fill-rule="evenodd" /></svg>