<?xml version="1.0" encoding="utf-8" ?>
<svg baseProfile="tiny" height="70" version="1.2" width="55" xmlns="http://www.w3.org/2000/svg" xmlns:ev="http://www.w3.org/2001/xml-events" xmlns:xlink="http://www.w3.org/1999/xlink"><defs /><path d="M 27,10 L 24,11 L 22,12 L 19,14 L 15,18 L 12,24 L 11,27 L 10,30 L 10,35 L 11,41 L 12,45 L 13,48 L 14,50 L 15,52 L 18,55 L 21,57 L 23,58 L 27,59 L 34,59 L 37,57 L 41,57 L 43,56 L 44,53 L 42,53 L 41,54 L 38,54 L 34,56 L 30,56 L 25,55 L 23,54 L 21,53 L 18,50 L 15,44 L 14,40 L 14,37 L 16,35 L 33,35 L 37,33 L 39,31 L 40,29 L 41,25 L 41,20 L 40,15 L 39,13 L 38,12 L 36,11 L 34,10 Z M 24,15 L 33,15 L 35,16 L 38,19 L 38,24 L 37,28 L 34,31 L 32,32 L 25,32 L 24,31 L 16,31 L 15,27 L 15,25 L 16,23 L 17,21 L 22,16 Z " fill="black" fill-rule="evenodd" /></svg>