<?xml version="1.0" encoding="utf-8" ?>
<svg baseProfile="tiny" height="74" version="1.2" width="54" xmlns="http://www.w3.org/2000/svg" xmlns:ev="http://www.w3.org/2001/xml-events" xmlns:xlink="http://www.w3.org/1999/xlink"><defs /><path d="M 22,10 L 20,11 L 14,17 L 13,20 L 12,28 L 12,45 L 10,57 L 12,63 L 15,61 L 24,60 L 37,60 L 39,59 L 37,56 L 29,58 L 17,59 L 14,56 L 14,50 L 15,41 L 17,39 L 23,40 L 26,40 L 36,39 L 38,38 L 38,36 L 33,36 L 25,37 L 18,36 L 15,33 L 15,31 L 16,22 L 17,19 L 20,16 L 22,15 L 28,15 L 34,13 L 38,13 L 43,14 L 42,11 L 39,10 Z " fill="black" fill-rule="evenodd" /></svg>