<?xml version="1.0" encoding="utf-8" ?>
<svg baseProfile="tiny" height="77" version="1.2" width="52" xmlns="http://www.w3.org/2000/svg" xmlns:ev="http://www.w3.org/2001/xml-events" xmlns:xlink="http://www.w3.org/1999/xlink"><defs /><path d="M 12,11 L 12,15 L 13,16 L 13,19 L 13,26 L 13,30 L 12,43 L 10,58 L 10,63 L 13,66 L 17,66 L 25,64 L 37,64 L 39,62 L 38,59 L 35,59 L 22,60 L 19,62 L 16,62 L 14,59 L 15,46 L 16,44 L 18,42 L 20,41 L 29,42 L 34,42 L 36,40 L 35,36 L 32,36 L 19,38 L 16,35 L 16,33 L 17,27 L 19,23 L 19,18 L 22,15 L 31,15 L 34,18 L 34,20 L 36,20 L 39,18 L 41,16 L 40,12 L 32,12 L 23,10 Z " fill="black" fill-rule="evenodd" /></svg>