<?xml version="1.0" encoding="utf-8" ?>
<svg baseProfile="tiny" height="88" version="1.2" width="52" xmlns="http://www.w3.org/2000/svg" xmlns:ev="http://www.w3.org/2001/xml-events" xmlns:xlink="http://www.w3.org/1999/xlink"><defs /><path d="M 28,10 L 24,11 L 21,12 L 19,13 L 13,18 L 10,21 L 11,23 L 16,28 L 17,30 L 17,40 L 15,44 L 15,46 L 16,52 L 15,53 L 15,59 L 15,72 L 15,75 L 17,77 L 19,76 L 20,74 L 19,57 L 19,54 L 20,53 L 19,48 L 22,45 L 40,45 L 40,43 L 38,42 L 23,42 L 20,39 L 20,36 L 20,26 L 20,21 L 21,19 L 23,17 L 28,14 L 30,13 L 35,13 L 38,16 L 41,21 L 41,15 L 40,13 L 37,10 Z " fill="black" fill-rule="evenodd" /></svg>