<?xml version="1.0" encoding="utf-8" ?>
<svg baseProfile="tiny" height="82" version="1.2" width="54" xmlns="http://www.w3.org/2000/svg" xmlns:ev="http://www.w3.org/2001/xml-events" xmlns:xlink="http://www.w3.org/1999/xlink"><defs /><path d="M 21,10 L 14,17 L 12,20 L 10,24 L 10,26 L 12,32 L 12,34 L 10,47 L 10,71 L 13,71 L 14,69 L 14,47 L 17,44 L 37,44 L 38,42 L 37,39 L 35,39 L 22,41 L 18,41 L 15,38 L 15,30 L 16,28 L 18,26 L 20,25 L 24,24 L 33,23 L 35,23 L 38,25 L 42,24 L 42,23 L 43,21 L 41,19 L 38,19 L 37,18 L 35,18 L 24,18 L 23,15 L 23,11 Z " fill="black" fill-rule="evenodd" /></svg>