<?xml version="1.0" encoding="utf-8" ?>
<svg baseProfile="tiny" height="121" version="1.2" width="65" xmlns="http://www.w3.org/2000/svg" xmlns:ev="http://www.w3.org/2001/xml-events" xmlns:xlink="http://www.w3.org/1999/xlink"><defs /><path d="M 21,10 L 19,11 L 12,18 L 11,20 L 10,23 L 10,38 L 11,41 L 12,43 L 14,46 L 18,50 L 20,51 L 22,52 L 25,53 L 31,53 L 35,52 L 37,51 L 43,46 L 45,46 L 47,48 L 47,57 L 49,62 L 49,89 L 48,91 L 46,93 L 44,94 L 39,94 L 28,93 L 23,92 L 19,91 L 16,88 L 19,85 L 21,85 L 23,84 L 25,78 L 17,81 L 15,82 L 13,84 L 12,86 L 12,88 L 13,90 L 17,94 L 19,95 L 21,96 L 24,96 L 27,98 L 32,98 L 34,99 L 36,101 L 37,103 L 37,108 L 39,110 L 41,108 L 41,105 L 40,104 L 40,102 L 43,99 L 46,99 L 50,97 L 52,95 L 53,93 L 54,90 L 54,66 L 53,59 L 52,51 L 51,48 L 48,42 L 50,39 L 50,32 L 47,21 L 45,22 L 43,24 L 41,24 L 42,27 L 44,29 L 45,31 L 45,39 L 44,41 L 40,45 L 38,46 L 33,48 L 23,48 L 21,47 L 17,43 L 16,41 L 15,38 L 14,35 L 14,26 L 15,22 L 16,20 L 21,15 L 23,14 L 29,14 L 31,15 L 34,17 L 36,20 L 40,22 L 40,19 L 39,17 L 35,13 L 29,10 Z " fill="black" fill-rule="evenodd" /></svg>