<?xml version="1.0" encoding="utf-8" ?>
<svg baseProfile="tiny" height="89" version="1.2" width="86" xmlns="http://www.w3.org/2000/svg" xmlns:ev="http://www.w3.org/2001/xml-events" xmlns:xlink="http://www.w3.org/1999/xlink"><defs /><path d="M 30,10 L 28,11 L 26,12 L 23,14 L 18,19 L 16,22 L 14,25 L 13,27 L 12,30 L 11,33 L 10,37 L 10,57 L 11,60 L 15,68 L 21,74 L 24,76 L 26,77 L 32,77 L 33,78 L 38,78 L 42,77 L 48,74 L 54,68 L 55,64 L 55,56 L 54,53 L 52,51 L 51,49 L 51,46 L 53,44 L 55,43 L 59,43 L 63,41 L 66,41 L 69,44 L 68,62 L 68,69 L 69,72 L 70,74 L 74,74 L 74,72 L 73,64 L 75,52 L 75,49 L 74,48 L 74,44 L 72,40 L 70,38 L 68,37 L 61,37 L 56,38 L 52,39 L 50,40 L 47,42 L 45,44 L 45,51 L 48,56 L 50,61 L 50,66 L 49,68 L 46,71 L 44,72 L 41,73 L 31,73 L 28,72 L 26,71 L 23,69 L 20,66 L 18,63 L 15,57 L 15,41 L 16,35 L 17,32 L 18,30 L 30,18 L 32,17 L 34,16 L 39,16 L 38,12 L 36,11 L 34,10 Z " fill="black" fill-rule="evenodd" /></svg>