<?xml version="1.0" encoding="utf-8" ?>
<svg baseProfile="tiny" height="82" version="1.2" width="60" xmlns="http://www.w3.org/2000/svg" xmlns:ev="http://www.w3.org/2001/xml-events" xmlns:xlink="http://www.w3.org/1999/xlink"><defs /><path d="M 12,10 L 10,12 L 10,14 L 11,15 L 11,17 L 10,18 L 10,21 L 12,30 L 12,34 L 11,56 L 12,60 L 13,64 L 14,67 L 15,69 L 17,71 L 19,69 L 19,65 L 18,64 L 18,59 L 16,55 L 17,46 L 16,42 L 16,40 L 18,38 L 22,37 L 36,37 L 38,38 L 41,41 L 44,47 L 45,52 L 44,61 L 44,68 L 47,71 L 49,69 L 48,62 L 49,48 L 48,45 L 47,42 L 46,40 L 41,35 L 33,31 L 28,30 L 20,31 L 17,31 L 15,28 L 16,18 L 14,12 Z " fill="black" fill-rule="evenodd" /></svg>