<?xml version="1.0" encoding="utf-8" ?>
<svg baseProfile="tiny" height="81" version="1.2" width="65" xmlns="http://www.w3.org/2000/svg" xmlns:ev="http://www.w3.org/2001/xml-events" xmlns:xlink="http://www.w3.org/1999/xlink"><defs /><path d="M 10,11 L 10,15 L 11,27 L 13,34 L 13,36 L 12,37 L 12,39 L 14,47 L 14,55 L 15,65 L 18,68 L 20,66 L 20,54 L 18,44 L 18,35 L 21,32 L 34,33 L 41,34 L 44,37 L 45,45 L 45,57 L 46,62 L 49,68 L 52,70 L 53,66 L 51,59 L 51,49 L 49,40 L 49,31 L 47,23 L 47,15 L 45,13 L 43,13 L 41,15 L 42,27 L 42,29 L 39,31 L 33,30 L 25,28 L 23,28 L 22,29 L 19,29 L 16,26 L 16,13 L 15,11 Z " fill="black" fill-rule="evenodd" /></svg>