<?xml version="1.0" encoding="utf-8" ?>
<svg baseProfile="tiny" height="78" version="1.2" width="76" xmlns="http://www.w3.org/2000/svg" xmlns:ev="http://www.w3.org/2001/xml-events" xmlns:xlink="http://www.w3.org/1999/xlink"><defs /><path d="M 23,11 L 13,12 L 11,13 L 10,16 L 12,18 L 14,18 L 17,16 L 24,15 L 33,14 L 35,14 L 37,16 L 37,18 L 35,21 L 35,24 L 34,25 L 34,27 L 36,43 L 36,51 L 35,57 L 31,60 L 25,59 L 23,60 L 24,65 L 26,66 L 33,67 L 35,67 L 40,64 L 56,65 L 58,65 L 60,63 L 58,61 L 51,60 L 42,60 L 40,58 L 40,18 L 43,15 L 47,15 L 54,16 L 64,15 L 65,12 L 63,10 Z " fill="black" fill-rule="evenodd" /></svg>