<?xml version="1.0" encoding="utf-8" ?>
<svg baseProfile="tiny" height="82" version="1.2" width="51" xmlns="http://www.w3.org/2000/svg" xmlns:ev="http://www.w3.org/2001/xml-events" xmlns:xlink="http://www.w3.org/1999/xlink"><defs /><path d="M 37,10 L 35,12 L 35,36 L 34,50 L 32,57 L 32,63 L 31,65 L 30,66 L 28,67 L 26,66 L 19,62 L 14,57 L 13,55 L 13,53 L 15,50 L 15,45 L 12,46 L 11,49 L 10,52 L 10,58 L 11,60 L 12,62 L 17,67 L 25,71 L 30,71 L 32,70 L 34,68 L 35,66 L 35,63 L 37,60 L 38,54 L 39,44 L 40,27 L 40,22 L 39,12 Z " fill="black" fill-rule="evenodd" /></svg>