<?xml version="1.0" encoding="utf-8" ?>
<svg baseProfile="tiny" height="79" version="1.2" width="70" xmlns="http://www.w3.org/2000/svg" xmlns:ev="http://www.w3.org/2001/xml-events" xmlns:xlink="http://www.w3.org/1999/xlink"><defs /><path d="M 55,10 L 42,11 L 32,13 L 30,13 L 25,12 L 13,12 L 10,13 L 10,15 L 12,17 L 14,18 L 17,19 L 20,19 L 23,17 L 26,17 L 30,15 L 33,18 L 33,26 L 34,33 L 35,40 L 36,45 L 38,49 L 38,59 L 37,61 L 36,62 L 34,63 L 31,63 L 25,60 L 23,58 L 22,55 L 23,53 L 26,49 L 26,47 L 24,46 L 22,47 L 20,48 L 19,49 L 18,51 L 18,59 L 20,61 L 20,62 L 21,63 L 22,63 L 24,65 L 30,68 L 37,68 L 39,67 L 42,64 L 43,62 L 43,52 L 42,47 L 40,42 L 38,29 L 38,24 L 39,20 L 42,17 L 47,16 L 51,15 L 53,15 L 54,16 L 57,16 L 59,14 L 58,10 Z " fill="black" fill-rule="evenodd" /></svg>