<?xml version="1.0" encoding="utf-8" ?>
<svg baseProfile="tiny" height="72" version="1.2" width="52" xmlns="http://www.w3.org/2000/svg" xmlns:ev="http://www.w3.org/2001/xml-events" xmlns:xlink="http://www.w3.org/1999/xlink"><defs /><path d="M 14,10 L 12,12 L 11,17 L 12,22 L 12,24 L 10,27 L 10,29 L 12,33 L 12,35 L 12,45 L 12,51 L 10,54 L 10,56 L 12,58 L 15,55 L 16,52 L 15,47 L 18,44 L 22,44 L 24,45 L 36,58 L 39,61 L 41,59 L 41,57 L 40,55 L 37,51 L 29,44 L 27,42 L 26,40 L 27,38 L 29,36 L 30,34 L 30,25 L 29,23 L 27,21 L 25,20 L 22,20 L 20,22 L 17,22 L 15,20 L 15,17 L 16,16 L 16,12 Z M 22,25 L 24,25 L 27,28 L 27,32 L 26,35 L 22,39 L 19,39 L 16,36 L 15,34 L 15,29 L 17,27 Z " fill="black" fill-rule="evenodd" /></svg>