<?xml version="1.0" encoding="utf-8" ?>
<svg baseProfile="tiny" height="74" version="1.2" width="64" xmlns="http://www.w3.org/2000/svg" xmlns:ev="http://www.w3.org/2001/xml-events" xmlns:xlink="http://www.w3.org/1999/xlink"><defs /><path d="M 13,11 L 13,29 L 12,40 L 10,47 L 10,61 L 13,63 L 15,62 L 17,61 L 26,52 L 29,45 L 31,43 L 33,43 L 40,50 L 44,52 L 49,58 L 53,58 L 53,55 L 50,51 L 46,48 L 41,44 L 37,42 L 33,38 L 34,36 L 37,33 L 38,31 L 39,29 L 38,25 L 36,25 L 34,28 L 31,33 L 29,38 L 26,43 L 16,53 L 13,52 L 13,50 L 14,49 L 15,45 L 16,39 L 17,33 L 16,10 Z " fill="black" fill-rule="evenodd" /></svg>