<?xml version="1.0" encoding="utf-8" ?>
<svg baseProfile="tiny" height="81" version="1.2" width="63" xmlns="http://www.w3.org/2000/svg" xmlns:ev="http://www.w3.org/2001/xml-events" xmlns:xlink="http://www.w3.org/1999/xlink"><defs /><path d="M 33,11 L 30,14 L 29,16 L 28,20 L 27,34 L 25,39 L 25,52 L 24,54 L 22,57 L 13,66 L 10,67 L 11,70 L 13,69 L 16,67 L 20,67 L 27,67 L 29,67 L 39,67 L 45,67 L 46,68 L 51,65 L 47,65 L 44,64 L 42,63 L 39,60 L 38,60 L 36,58 L 36,57 L 33,54 L 33,50 L 33,48 L 36,43 L 37,40 L 38,36 L 38,12 L 36,10 Z M 29,56 L 31,57 L 35,61 L 34,65 L 31,65 L 27,63 L 25,61 L 25,59 L 27,57 Z M 32,22 L 36,22 L 36,30 L 35,39 L 34,42 L 32,44 L 29,43 L 29,38 L 30,37 L 31,30 L 31,24 Z " fill="black" fill-rule="evenodd" /></svg>