<?xml version="1.0" encoding="utf-8" ?>
<svg baseProfile="tiny" height="58" version="1.2" width="102" xmlns="http://www.w3.org/2000/svg" xmlns:ev="http://www.w3.org/2001/xml-events" xmlns:xlink="http://www.w3.org/1999/xlink"><defs /><path d="M 1,22 L 1,24 L 4,24 L 6,23 L 6,21 Z M 0,11 L 1,15 L 6,15 L 9,17 L 13,16 L 11,14 L 2,11 Z M 57,10 L 55,11 L 52,14 L 48,16 L 45,15 L 43,13 L 41,12 L 29,12 L 25,14 L 23,14 L 18,12 L 18,15 L 17,16 L 17,18 L 20,22 L 16,25 L 12,24 L 10,26 L 18,28 L 19,30 L 21,35 L 22,40 L 22,45 L 24,47 L 28,46 L 28,44 L 26,42 L 26,38 L 25,37 L 25,34 L 27,29 L 27,21 L 31,17 L 33,16 L 40,16 L 43,17 L 45,18 L 47,20 L 48,22 L 49,24 L 50,28 L 50,35 L 52,37 L 55,36 L 55,29 L 54,28 L 54,20 L 55,18 L 58,15 L 60,14 L 70,14 L 74,15 L 76,16 L 78,17 L 83,22 L 85,25 L 86,27 L 87,42 L 89,42 L 90,40 L 91,37 L 91,26 L 90,24 L 89,22 L 86,19 L 86,18 L 84,16 L 81,14 L 78,12 L 76,11 L 71,10 Z " fill="black" fill-rule="evenodd" /></svg>