<?xml version="1.0" encoding="utf-8" ?>
<svg baseProfile="tiny" height="74" version="1.2" width="72" xmlns="http://www.w3.org/2000/svg" xmlns:ev="http://www.w3.org/2001/xml-events" xmlns:xlink="http://www.w3.org/1999/xlink"><defs /><path d="M 50,10 L 48,12 L 44,17 L 40,20 L 37,21 L 33,25 L 31,26 L 27,22 L 26,20 L 26,18 L 25,16 L 21,12 L 19,11 L 14,11 L 11,14 L 10,16 L 10,21 L 12,24 L 12,29 L 11,30 L 11,34 L 11,55 L 11,57 L 15,60 L 17,58 L 17,24 L 15,21 L 15,19 L 18,17 L 21,20 L 22,22 L 23,26 L 25,30 L 27,32 L 31,32 L 37,29 L 43,24 L 50,18 L 52,20 L 52,23 L 53,24 L 53,26 L 52,31 L 53,50 L 54,56 L 56,61 L 59,63 L 61,61 L 61,56 L 60,55 L 59,48 L 59,39 L 58,29 L 56,23 L 56,17 L 55,13 L 54,11 Z " fill="black" fill-rule="evenodd" /></svg>