<?xml version="1.0" encoding="utf-8" ?>
<svg baseProfile="tiny" height="60" version="1.2" width="60" xmlns="http://www.w3.org/2000/svg" xmlns:ev="http://www.w3.org/2001/xml-events" xmlns:xlink="http://www.w3.org/1999/xlink"><defs /><path d="M 21,10 L 18,11 L 16,12 L 11,17 L 10,19 L 10,21 L 10,32 L 10,36 L 12,39 L 12,45 L 13,47 L 16,49 L 18,47 L 17,29 L 17,22 L 18,20 L 22,16 L 26,14 L 28,14 L 30,15 L 39,24 L 41,28 L 44,34 L 45,39 L 46,48 L 48,46 L 49,43 L 49,34 L 48,30 L 44,22 L 42,19 L 36,13 L 34,12 L 32,11 L 29,10 Z " fill="black" fill-rule="evenodd" /></svg>