<?xml version="1.0" encoding="utf-8" ?>
<svg baseProfile="tiny" height="88" version="1.2" width="75" xmlns="http://www.w3.org/2000/svg" xmlns:ev="http://www.w3.org/2001/xml-events" xmlns:xlink="http://www.w3.org/1999/xlink"><defs /><path d="M 49,11 L 49,18 L 52,26 L 55,43 L 55,58 L 57,60 L 58,63 L 56,65 L 54,65 L 47,59 L 39,51 L 32,42 L 23,33 L 20,32 L 16,28 L 13,28 L 11,30 L 10,32 L 10,37 L 12,42 L 13,51 L 13,74 L 16,77 L 18,75 L 19,66 L 19,62 L 17,48 L 17,46 L 18,42 L 15,40 L 17,37 L 21,38 L 31,48 L 49,67 L 53,70 L 56,72 L 61,74 L 63,72 L 64,63 L 64,58 L 63,57 L 63,51 L 61,48 L 60,41 L 58,38 L 58,32 L 56,27 L 56,22 L 54,17 L 54,12 L 52,10 Z " fill="black" fill-rule="evenodd" /></svg>