<?xml version="1.0" encoding="utf-8" ?>
<svg baseProfile="tiny" height="61" version="1.2" width="55" xmlns="http://www.w3.org/2000/svg" xmlns:ev="http://www.w3.org/2001/xml-events" xmlns:xlink="http://www.w3.org/1999/xlink"><defs /><path d="M 25,10 L 23,11 L 18,16 L 15,16 L 12,19 L 11,22 L 10,27 L 10,39 L 13,45 L 15,47 L 21,50 L 28,50 L 31,49 L 33,48 L 35,47 L 42,40 L 43,38 L 44,33 L 44,28 L 43,24 L 42,21 L 41,19 L 40,17 L 36,13 L 34,12 L 32,11 L 29,10 Z M 23,17 L 28,17 L 30,18 L 33,20 L 38,25 L 38,30 L 39,31 L 39,35 L 38,37 L 32,43 L 29,44 L 27,46 L 25,47 L 22,46 L 16,40 L 15,38 L 15,31 L 16,25 L 17,23 L 18,21 L 21,18 Z " fill="black" fill-rule="evenodd" /></svg>