<?xml version="1.0" encoding="utf-8" ?>
<svg baseProfile="tiny" height="73" version="1.2" width="62" xmlns="http://www.w3.org/2000/svg" xmlns:ev="http://www.w3.org/2001/xml-events" xmlns:xlink="http://www.w3.org/1999/xlink"><defs /><path d="M 28,10 L 22,13 L 19,15 L 16,18 L 14,22 L 11,28 L 10,32 L 10,48 L 11,52 L 12,54 L 16,58 L 19,60 L 21,61 L 24,62 L 34,62 L 37,61 L 39,60 L 41,59 L 48,52 L 49,50 L 50,48 L 51,43 L 51,36 L 50,31 L 49,28 L 48,25 L 47,23 L 45,20 L 42,16 L 37,11 L 35,10 Z M 26,16 L 34,16 L 36,17 L 39,20 L 42,25 L 43,27 L 44,29 L 46,40 L 46,45 L 45,47 L 44,49 L 42,52 L 39,55 L 33,58 L 26,58 L 23,57 L 21,56 L 15,50 L 14,44 L 14,38 L 15,32 L 16,29 L 20,21 L 24,17 Z " fill="black" fill-rule="evenodd" /></svg>