<?xml version="1.0" encoding="utf-8" ?>
<svg baseProfile="tiny" height="75" version="1.2" width="50" xmlns="http://www.w3.org/2000/svg" xmlns:ev="http://www.w3.org/2001/xml-events" xmlns:xlink="http://www.w3.org/1999/xlink"><defs /><path d="M 22,10 L 20,11 L 18,12 L 13,15 L 11,17 L 10,19 L 10,27 L 14,30 L 13,25 L 13,23 L 14,21 L 20,15 L 25,13 L 31,14 L 34,17 L 35,19 L 35,27 L 34,29 L 33,31 L 29,34 L 27,32 L 27,30 L 28,17 L 25,18 L 24,23 L 24,34 L 22,36 L 18,35 L 19,38 L 22,39 L 25,43 L 24,62 L 27,64 L 29,62 L 28,41 L 29,39 L 31,37 L 36,33 L 37,31 L 38,29 L 39,26 L 39,20 L 38,16 L 37,14 L 34,11 L 32,10 Z " fill="black" fill-rule="evenodd" /></svg>