<?xml version="1.0" encoding="utf-8" ?>
<svg baseProfile="tiny" height="80" version="1.2" width="56" xmlns="http://www.w3.org/2000/svg" xmlns:ev="http://www.w3.org/2001/xml-events" xmlns:xlink="http://www.w3.org/1999/xlink"><defs /><path d="M 15,10 L 13,11 L 11,13 L 10,15 L 10,23 L 12,28 L 12,67 L 15,69 L 17,67 L 16,42 L 18,40 L 20,40 L 24,43 L 26,44 L 29,45 L 36,45 L 38,44 L 42,40 L 43,38 L 44,36 L 45,33 L 45,28 L 44,24 L 41,18 L 36,13 L 33,11 L 31,10 Z M 24,14 L 29,14 L 31,15 L 33,16 L 38,21 L 41,27 L 41,32 L 40,35 L 35,40 L 27,40 L 23,39 L 19,37 L 17,35 L 16,33 L 15,29 L 15,25 L 13,22 L 13,20 L 17,16 L 19,15 Z " fill="black" fill-rule="evenodd" /></svg>