<?xml version="1.0" encoding="utf-8" ?>
<svg baseProfile="tiny" height="73" version="1.2" width="59" xmlns="http://www.w3.org/2000/svg" xmlns:ev="http://www.w3.org/2001/xml-events" xmlns:xlink="http://www.w3.org/1999/xlink"><defs /><path d="M 24,10 L 15,19 L 14,21 L 13,23 L 12,26 L 11,29 L 10,36 L 10,49 L 11,54 L 12,56 L 16,60 L 18,61 L 26,61 L 28,60 L 30,59 L 34,55 L 36,55 L 42,61 L 44,62 L 48,62 L 47,59 L 45,59 L 39,53 L 38,51 L 38,49 L 40,43 L 40,33 L 39,28 L 38,24 L 36,20 L 33,19 L 29,21 L 27,23 L 25,27 L 29,27 L 29,26 L 31,24 L 33,24 L 35,26 L 36,29 L 36,41 L 34,43 L 29,38 L 26,37 L 24,38 L 22,39 L 17,44 L 15,44 L 13,42 L 13,39 L 14,38 L 15,28 L 19,20 L 23,16 L 25,15 L 32,13 L 30,11 L 28,10 Z M 23,43 L 29,43 L 33,47 L 33,51 L 27,57 L 25,58 L 20,58 L 17,56 L 15,54 L 15,50 L 17,50 L 20,52 L 22,52 L 24,51 L 25,49 L 21,49 L 19,47 L 20,45 L 21,44 Z " fill="black" fill-rule="evenodd" /></svg>