<?xml version="1.0" encoding="utf-8" ?>
<svg baseProfile="tiny" height="76" version="1.2" width="66" xmlns="http://www.w3.org/2000/svg" xmlns:ev="http://www.w3.org/2001/xml-events" xmlns:xlink="http://www.w3.org/1999/xlink"><defs /><path d="M 24,10 L 22,11 L 18,15 L 15,19 L 14,21 L 12,26 L 11,30 L 10,34 L 10,44 L 11,52 L 12,54 L 15,59 L 18,62 L 24,65 L 30,65 L 36,62 L 40,59 L 44,56 L 48,61 L 51,60 L 51,57 L 47,53 L 46,51 L 46,47 L 47,45 L 49,43 L 51,42 L 53,41 L 55,40 L 51,41 L 48,38 L 47,30 L 48,23 L 44,18 L 39,13 L 36,13 L 31,10 Z M 29,43 L 31,44 L 35,48 L 38,49 L 39,50 L 40,52 L 36,56 L 31,59 L 29,60 L 23,60 L 16,53 L 16,50 L 18,46 L 20,44 L 22,44 L 24,46 L 25,50 L 27,50 L 26,46 Z M 27,13 L 29,13 L 31,15 L 31,17 L 31,22 L 34,19 L 37,18 L 41,22 L 41,26 L 44,31 L 44,35 L 45,36 L 45,39 L 44,42 L 43,44 L 39,47 L 32,40 L 29,39 L 24,40 L 21,39 L 19,38 L 17,40 L 17,41 L 13,41 L 13,38 L 15,31 L 16,28 L 17,25 L 20,19 L 25,14 Z " fill="black" fill-rule="evenodd" /></svg>