<?xml version="1.0" encoding="utf-8" ?>
<svg baseProfile="tiny" height="82" version="1.2" width="53" xmlns="http://www.w3.org/2000/svg" xmlns:ev="http://www.w3.org/2001/xml-events" xmlns:xlink="http://www.w3.org/1999/xlink"><defs /><path d="M 32,10 L 26,11 L 24,12 L 22,13 L 19,16 L 18,18 L 17,20 L 17,23 L 13,27 L 14,30 L 19,34 L 21,38 L 20,40 L 19,41 L 16,42 L 13,45 L 11,48 L 10,50 L 10,61 L 11,63 L 12,65 L 16,69 L 18,70 L 21,71 L 28,71 L 32,70 L 35,69 L 34,66 L 31,67 L 21,67 L 19,66 L 15,62 L 14,60 L 13,55 L 13,53 L 14,51 L 15,49 L 20,44 L 22,43 L 25,43 L 34,46 L 34,44 L 32,40 L 30,38 L 28,37 L 25,37 L 22,33 L 25,30 L 28,30 L 33,31 L 36,30 L 38,29 L 40,27 L 41,25 L 42,23 L 42,17 L 41,15 L 37,11 L 35,10 Z M 30,14 L 32,14 L 35,15 L 39,19 L 39,23 L 35,27 L 25,27 L 23,29 L 19,28 L 18,26 L 20,22 L 21,19 L 25,15 Z " fill="black" fill-rule="evenodd" /></svg>