<?xml version="1.0" encoding="utf-8" ?>
<svg baseProfile="tiny" height="78" version="1.2" width="58" xmlns="http://www.w3.org/2000/svg" xmlns:ev="http://www.w3.org/2001/xml-events" xmlns:xlink="http://www.w3.org/1999/xlink"><defs /><path d="M 26,11 L 20,13 L 16,13 L 14,14 L 11,17 L 10,19 L 10,24 L 13,29 L 12,49 L 12,58 L 13,65 L 15,67 L 17,65 L 16,51 L 16,48 L 18,46 L 20,45 L 26,46 L 26,48 L 28,50 L 37,57 L 42,62 L 43,65 L 46,64 L 47,62 L 47,60 L 42,55 L 37,51 L 32,47 L 28,46 L 26,43 L 31,38 L 34,32 L 34,21 L 33,19 L 32,17 L 31,16 L 30,16 L 29,15 L 28,13 L 28,10 Z M 20,17 L 26,17 L 30,21 L 31,26 L 30,32 L 29,34 L 23,40 L 21,41 L 19,41 L 16,37 L 17,26 L 15,22 L 16,20 L 18,18 Z M 42,0 L 39,1 L 36,3 L 33,6 L 32,6 L 30,9 L 32,9 L 34,8 L 39,5 L 42,3 L 45,0 Z " fill="black" fill-rule="evenodd" /></svg>