<?xml version="1.0" encoding="utf-8" ?>
<svg baseProfile="tiny" height="61" version="1.2" width="56" xmlns="http://www.w3.org/2000/svg" xmlns:ev="http://www.w3.org/2001/xml-events" xmlns:xlink="http://www.w3.org/1999/xlink"><defs /><path d="M 31,10 L 28,11 L 25,12 L 23,13 L 20,15 L 17,18 L 15,21 L 14,23 L 13,25 L 12,29 L 12,33 L 16,37 L 19,37 L 20,38 L 22,38 L 23,37 L 25,37 L 26,38 L 29,38 L 33,42 L 33,44 L 31,46 L 26,46 L 18,45 L 11,46 L 14,47 L 21,49 L 25,50 L 34,50 L 38,46 L 38,42 L 37,40 L 36,38 L 33,35 L 31,34 L 27,34 L 26,33 L 23,33 L 22,34 L 19,34 L 16,31 L 17,28 L 18,26 L 19,24 L 21,21 L 26,16 L 28,15 L 31,14 L 38,14 L 43,17 L 44,15 L 44,12 L 41,11 L 37,10 Z " fill="black" fill-rule="evenodd" /></svg>