<?xml version="1.0" encoding="utf-8" ?>
<svg baseProfile="tiny" height="87" version="1.2" width="59" xmlns="http://www.w3.org/2000/svg" xmlns:ev="http://www.w3.org/2001/xml-events" xmlns:xlink="http://www.w3.org/1999/xlink"><defs /><path d="M 30,10 L 22,14 L 19,16 L 13,22 L 12,24 L 11,26 L 10,29 L 10,42 L 12,46 L 14,48 L 16,49 L 21,49 L 31,44 L 34,43 L 36,43 L 40,47 L 40,56 L 36,64 L 30,70 L 28,71 L 24,71 L 22,70 L 19,68 L 16,65 L 13,63 L 10,64 L 11,66 L 18,73 L 24,76 L 26,76 L 31,75 L 33,74 L 36,72 L 40,68 L 42,65 L 43,62 L 44,59 L 45,55 L 45,47 L 44,45 L 43,43 L 39,39 L 37,38 L 35,38 L 34,39 L 31,39 L 24,41 L 19,44 L 16,44 L 13,41 L 13,34 L 15,31 L 15,28 L 16,26 L 24,18 L 27,16 L 29,15 L 34,14 L 39,14 L 41,15 L 42,16 L 44,21 L 46,21 L 48,18 L 47,16 L 46,14 L 43,11 L 41,10 Z " fill="black" fill-rule="evenodd" /></svg>