<?xml version="1.0" encoding="utf-8" ?>
<svg baseProfile="tiny" height="78" version="1.2" width="56" xmlns="http://www.w3.org/2000/svg" xmlns:ev="http://www.w3.org/2001/xml-events" xmlns:xlink="http://www.w3.org/1999/xlink"><defs /><path d="M 24,11 L 23,13 L 23,20 L 24,32 L 21,35 L 10,36 L 10,38 L 12,40 L 17,40 L 22,37 L 24,37 L 27,40 L 27,43 L 26,46 L 25,48 L 24,50 L 20,54 L 15,56 L 11,60 L 11,64 L 13,64 L 16,61 L 21,59 L 23,57 L 25,53 L 27,51 L 29,51 L 31,53 L 31,55 L 32,57 L 35,62 L 37,65 L 41,65 L 40,63 L 38,59 L 31,46 L 31,38 L 33,36 L 45,36 L 44,34 L 42,33 L 33,33 L 31,31 L 31,15 L 30,13 L 27,10 Z " fill="black" fill-rule="evenodd" /></svg>