<?xml version="1.0" encoding="utf-8" ?>
<svg baseProfile="tiny" height="74" version="1.2" width="87" xmlns="http://www.w3.org/2000/svg" xmlns:ev="http://www.w3.org/2001/xml-events" xmlns:xlink="http://www.w3.org/1999/xlink"><defs /><path d="M 61,10 L 50,11 L 39,13 L 20,13 L 12,14 L 10,16 L 10,18 L 12,20 L 17,20 L 23,18 L 30,17 L 36,16 L 38,16 L 40,18 L 40,26 L 38,34 L 38,49 L 39,60 L 40,62 L 42,63 L 44,61 L 45,59 L 45,53 L 43,43 L 43,36 L 45,28 L 45,19 L 48,16 L 56,15 L 73,16 L 75,15 L 76,12 L 74,10 L 70,10 L 69,11 L 66,11 L 65,10 Z " fill="black" fill-rule="evenodd" /></svg>