<?xml version="1.0" encoding="utf-8" ?>
<svg baseProfile="tiny" height="71" version="1.2" width="77" xmlns="http://www.w3.org/2000/svg" xmlns:ev="http://www.w3.org/2001/xml-events" xmlns:xlink="http://www.w3.org/1999/xlink"><defs /><path d="M 52,11 L 51,11 L 50,20 L 52,29 L 52,32 L 51,35 L 50,37 L 46,41 L 44,42 L 39,42 L 37,41 L 31,35 L 30,33 L 30,26 L 31,25 L 28,17 L 27,19 L 27,25 L 26,32 L 25,39 L 24,42 L 23,44 L 17,50 L 14,52 L 10,54 L 14,57 L 16,56 L 19,54 L 25,48 L 26,46 L 28,40 L 30,40 L 34,44 L 36,45 L 39,45 L 40,46 L 42,46 L 45,45 L 47,44 L 51,40 L 53,40 L 55,42 L 55,45 L 59,53 L 61,56 L 65,60 L 66,57 L 60,47 L 58,42 L 57,39 L 56,35 L 56,26 L 58,19 L 58,14 L 57,12 L 56,11 L 55,11 Z " fill="black" fill-rule="evenodd" /></svg>