<?xml version="1.0" encoding="utf-8" ?>
<svg baseProfile="tiny" height="77" version="1.2" width="73" xmlns="http://www.w3.org/2000/svg" xmlns:ev="http://www.w3.org/2001/xml-events" xmlns:xlink="http://www.w3.org/1999/xlink"><defs /><path d="M 53,12 L 53,17 L 56,21 L 57,25 L 57,39 L 56,42 L 55,45 L 52,53 L 51,55 L 47,59 L 45,60 L 43,61 L 34,61 L 31,60 L 29,59 L 26,57 L 20,51 L 18,48 L 17,46 L 17,42 L 15,39 L 16,24 L 16,22 L 16,17 L 16,15 L 14,13 L 12,15 L 12,21 L 10,24 L 10,39 L 11,43 L 12,46 L 16,54 L 23,61 L 31,65 L 35,66 L 40,66 L 45,65 L 48,64 L 50,63 L 56,57 L 59,53 L 59,50 L 61,48 L 62,45 L 62,27 L 61,21 L 60,17 L 58,12 L 56,10 Z " fill="black" fill-rule="evenodd" /></svg>