<?xml version="1.0" encoding="utf-8" ?>
<svg baseProfile="tiny" height="56" version="1.2" width="53" xmlns="http://www.w3.org/2000/svg" xmlns:ev="http://www.w3.org/2001/xml-events" xmlns:xlink="http://www.w3.org/1999/xlink"><defs /><path d="M 13,11 L 11,13 L 10,15 L 10,19 L 14,24 L 14,19 L 16,17 L 18,17 L 21,20 L 24,26 L 27,35 L 30,41 L 35,45 L 38,42 L 41,33 L 42,17 L 42,12 L 40,10 L 38,12 L 38,24 L 36,27 L 35,38 L 32,37 L 31,35 L 30,33 L 30,30 L 29,27 L 23,15 L 20,12 L 16,10 Z " fill="black" fill-rule="evenodd" /></svg>