<?xml version="1.0" encoding="utf-8" ?>
<svg baseProfile="tiny" height="68" version="1.2" width="65" xmlns="http://www.w3.org/2000/svg" xmlns:ev="http://www.w3.org/2001/xml-events" xmlns:xlink="http://www.w3.org/1999/xlink"><defs /><path d="M 10,11 L 10,14 L 11,16 L 17,22 L 19,27 L 22,30 L 26,39 L 29,42 L 31,47 L 33,50 L 41,57 L 43,56 L 46,53 L 47,50 L 49,45 L 51,38 L 52,31 L 54,19 L 54,12 L 52,10 L 50,12 L 49,18 L 49,24 L 47,32 L 46,36 L 43,41 L 43,47 L 41,49 L 39,49 L 36,46 L 34,43 L 32,40 L 29,35 L 26,30 L 23,23 L 18,15 L 17,14 L 12,10 Z " fill="black" fill-rule="evenodd" /></svg>