<?xml version="1.0" encoding="utf-8" ?>
<svg baseProfile="tiny" height="62" version="1.2" width="71" xmlns="http://www.w3.org/2000/svg" xmlns:ev="http://www.w3.org/2001/xml-events" xmlns:xlink="http://www.w3.org/1999/xlink"><defs /><path d="M 53,10 L 51,13 L 52,15 L 55,19 L 56,22 L 56,34 L 55,37 L 50,42 L 47,42 L 45,41 L 40,36 L 39,34 L 39,30 L 38,28 L 37,26 L 33,26 L 33,30 L 32,32 L 29,35 L 26,42 L 21,47 L 18,47 L 14,43 L 14,30 L 15,28 L 19,24 L 22,24 L 21,21 L 20,21 L 18,19 L 16,19 L 14,20 L 12,23 L 11,25 L 10,28 L 10,44 L 12,48 L 14,50 L 16,51 L 20,51 L 22,50 L 24,49 L 31,42 L 33,37 L 37,38 L 42,44 L 44,45 L 51,45 L 53,44 L 57,40 L 58,38 L 59,36 L 60,32 L 60,21 L 59,18 L 58,15 L 57,13 L 55,11 Z " fill="black" fill-rule="evenodd" /></svg>