<?xml version="1.0" encoding="utf-8" ?>
<svg baseProfile="tiny" height="64" version="1.2" width="92" xmlns="http://www.w3.org/2000/svg" xmlns:ev="http://www.w3.org/2001/xml-events" xmlns:xlink="http://www.w3.org/1999/xlink"><defs /><path d="M 10,13 L 10,18 L 12,20 L 16,23 L 21,31 L 23,36 L 28,41 L 30,46 L 36,51 L 38,49 L 39,47 L 39,42 L 43,35 L 43,29 L 44,27 L 48,24 L 51,27 L 51,30 L 53,34 L 56,40 L 61,48 L 65,52 L 67,53 L 70,53 L 72,52 L 73,51 L 74,49 L 76,45 L 77,42 L 78,38 L 78,27 L 80,22 L 81,13 L 78,11 L 76,13 L 75,19 L 75,25 L 72,29 L 72,43 L 71,45 L 69,47 L 67,47 L 63,43 L 61,39 L 57,32 L 56,30 L 56,28 L 55,26 L 47,18 L 44,18 L 42,21 L 39,27 L 39,30 L 36,35 L 36,39 L 33,42 L 30,39 L 29,37 L 29,35 L 27,32 L 24,29 L 22,26 L 18,19 L 15,12 L 13,10 Z " fill="black" fill-rule="evenodd" /></svg>