<?xml version="1.0" encoding="utf-8" ?>
<svg baseProfile="tiny" height="59" version="1.2" width="93" xmlns="http://www.w3.org/2000/svg" xmlns:ev="http://www.w3.org/2001/xml-events" xmlns:xlink="http://www.w3.org/1999/xlink"><defs /><path d="M 60,10 L 58,11 L 56,12 L 52,16 L 49,22 L 48,32 L 45,31 L 45,27 L 44,24 L 43,22 L 42,20 L 39,17 L 36,15 L 34,14 L 32,13 L 28,12 L 19,12 L 16,13 L 12,17 L 11,19 L 10,21 L 10,25 L 12,29 L 14,31 L 16,31 L 16,29 L 14,26 L 14,23 L 15,21 L 20,16 L 23,15 L 25,15 L 28,16 L 31,17 L 33,18 L 41,26 L 42,28 L 42,32 L 41,34 L 33,42 L 27,45 L 25,43 L 25,41 L 27,38 L 27,36 L 25,36 L 22,39 L 21,41 L 21,44 L 24,47 L 31,47 L 39,43 L 44,38 L 46,33 L 49,34 L 49,37 L 50,39 L 51,41 L 54,44 L 56,45 L 58,46 L 61,47 L 65,48 L 80,48 L 82,47 L 81,44 L 69,45 L 64,44 L 61,43 L 59,42 L 57,41 L 54,38 L 53,36 L 53,27 L 54,23 L 55,21 L 60,16 L 62,15 L 64,14 L 68,14 L 71,15 L 73,17 L 75,18 L 77,17 L 76,13 L 74,12 L 70,10 Z " fill="black" fill-rule="evenodd" /></svg>