<?xml version="1.0" encoding="utf-8" ?>
<svg baseProfile="tiny" height="66" version="1.2" width="55" xmlns="http://www.w3.org/2000/svg" xmlns:ev="http://www.w3.org/2001/xml-events" xmlns:xlink="http://www.w3.org/1999/xlink"><defs /><path d="M 10,12 L 10,16 L 13,19 L 16,20 L 18,22 L 25,30 L 26,32 L 25,34 L 19,40 L 16,46 L 12,50 L 11,52 L 12,55 L 14,55 L 16,53 L 20,48 L 21,45 L 25,40 L 27,38 L 29,37 L 34,42 L 36,46 L 42,51 L 44,50 L 44,47 L 32,35 L 32,32 L 41,23 L 42,20 L 40,18 L 34,24 L 28,28 L 25,25 L 24,22 L 21,18 L 16,12 L 15,11 L 14,11 Z " fill="black" fill-rule="evenodd" /></svg>