<?xml version="1.0" encoding="utf-8" ?>
<svg baseProfile="tiny" height="88" version="1.2" width="60" xmlns="http://www.w3.org/2000/svg" xmlns:ev="http://www.w3.org/2001/xml-events" xmlns:xlink="http://www.w3.org/1999/xlink"><defs /><path d="M 43,11 L 42,13 L 42,20 L 41,26 L 37,30 L 31,31 L 28,31 L 27,30 L 23,30 L 17,24 L 14,19 L 12,17 L 10,19 L 10,22 L 11,24 L 16,30 L 19,32 L 21,33 L 23,34 L 32,34 L 36,32 L 39,35 L 39,39 L 38,40 L 37,51 L 36,55 L 32,59 L 29,57 L 27,57 L 23,60 L 19,64 L 18,66 L 18,71 L 19,73 L 23,77 L 26,77 L 28,76 L 30,75 L 33,72 L 35,69 L 39,60 L 42,56 L 41,49 L 43,38 L 44,32 L 45,29 L 48,23 L 49,19 L 49,13 L 48,11 Z M 30,62 L 33,63 L 33,65 L 31,68 L 29,71 L 27,73 L 25,74 L 23,73 L 22,70 L 23,68 L 28,63 Z " fill="black" fill-rule="evenodd" /></svg>