<?xml version="1.0" encoding="utf-8" ?>
<svg baseProfile="tiny" height="98" version="1.2" width="66" xmlns="http://www.w3.org/2000/svg" xmlns:ev="http://www.w3.org/2001/xml-events" xmlns:xlink="http://www.w3.org/1999/xlink"><defs /><path d="M 10,12 L 10,16 L 13,22 L 18,29 L 27,39 L 30,43 L 36,53 L 37,56 L 36,58 L 35,60 L 30,70 L 26,81 L 27,87 L 30,87 L 31,85 L 32,83 L 32,80 L 35,73 L 38,65 L 41,61 L 42,59 L 42,56 L 44,53 L 44,50 L 47,43 L 51,36 L 52,31 L 54,29 L 55,27 L 55,24 L 54,22 L 52,21 L 51,25 L 48,28 L 47,30 L 42,41 L 42,44 L 40,46 L 38,46 L 36,44 L 33,38 L 27,31 L 24,27 L 23,24 L 19,21 L 17,18 L 18,15 L 17,13 L 15,11 L 13,10 Z " fill="black" fill-rule="evenodd" /></svg>