<?xml version="1.0" encoding="utf-8" ?>
<svg baseProfile="tiny" height="54" version="1.2" width="60" xmlns="http://www.w3.org/2000/svg" xmlns:ev="http://www.w3.org/2001/xml-events" xmlns:xlink="http://www.w3.org/1999/xlink"><defs /><path d="M 27,10 L 23,11 L 21,12 L 19,13 L 14,18 L 14,22 L 17,25 L 18,20 L 19,18 L 21,16 L 23,15 L 31,13 L 37,13 L 39,16 L 35,20 L 32,22 L 27,24 L 23,29 L 22,30 L 17,33 L 11,39 L 11,43 L 14,43 L 16,42 L 19,39 L 21,38 L 27,38 L 31,39 L 36,42 L 45,42 L 47,41 L 46,38 L 43,39 L 39,39 L 32,35 L 28,36 L 26,35 L 25,32 L 26,30 L 28,28 L 36,24 L 40,21 L 43,18 L 42,10 Z " fill="black" fill-rule="evenodd" /></svg>