<?xml version="1.0" encoding="utf-8" ?>
<svg baseProfile="tiny" height="71" version="1.2" width="75" xmlns="http://www.w3.org/2000/svg" xmlns:ev="http://www.w3.org/2001/xml-events" xmlns:xlink="http://www.w3.org/1999/xlink"><defs /><path d="M 57,10 L 18,12 L 16,12 L 15,11 L 12,11 L 10,12 L 10,16 L 13,19 L 15,19 L 19,17 L 28,16 L 46,15 L 53,15 L 55,18 L 38,35 L 35,36 L 24,46 L 23,47 L 17,54 L 16,56 L 16,58 L 18,60 L 20,60 L 25,57 L 35,56 L 39,55 L 43,53 L 47,52 L 52,51 L 61,51 L 63,50 L 64,47 L 62,45 L 60,45 L 50,46 L 44,47 L 41,48 L 38,49 L 34,53 L 32,54 L 27,55 L 23,55 L 21,52 L 23,50 L 26,50 L 27,51 L 30,50 L 31,47 L 34,44 L 35,44 L 40,40 L 47,34 L 60,21 L 61,19 L 62,16 L 62,12 L 60,10 Z " fill="black" fill-rule="evenodd" /></svg>